<svg xmlns="http://www.w3.org/2000/svg" viewBox="0 0 596.28 226.77"><g id="b41a19dc-a6ed-4d5b-a97e-350f111b94cc" data-name="Capa 2"><g id="bbd238f1-3617-4f66-a081-4931d602d45d" data-name="Capa 1"><path d="M52.18,26.24A29.28,29.28,0,0,0,34.3,43.51,40.54,40.54,0,0,0,31.68,58.7,40.56,40.56,0,0,0,34.3,73.9,28.74,28.74,0,0,0,47.46,89c-.73.16-1.46.34-2.17.55a19.36,19.36,0,0,0-6.9,3.73,18,18,0,0,0-4.88,6.77,25.16,25.16,0,0,0-1.83,10.07,30.65,30.65,0,0,0,1,8.42,26.19,26.19,0,0,0,2.5,6.16A19.13,19.13,0,0,0,38,128.51c.86.85,1.82,1.73,2.87,2.62.41.33.65.53.73.61a15.28,15.28,0,0,0-7.26,6.9,21,21,0,0,0-2.62,10.19,28.49,28.49,0,0,0,2.38,12,21,21,0,0,0,7.63,8.73v.24H33.26v23.31H96.61V169H62.31c-3.58,0-6.36-.65-8.36-2s-3-3.37-3-6.22c0-3.34,1-5.49,2.87-6.47s4.74-1.46,8.48-1.46h34.3V128.69H62.31c-3.58,0-6.36-.65-8.36-2s-3-3.38-3-6.23q0-5,2.87-6.47t8.48-1.46h34.3V88.41H83.4a29.75,29.75,0,0,0,4.85-3.65A29.43,29.43,0,0,0,95.57,73.9,40.55,40.55,0,0,0,98.2,58.7a40.54,40.54,0,0,0-2.63-15.19,29.88,29.88,0,0,0-7.26-10.86,29.41,29.41,0,0,0-10.68-6.41,39.08,39.08,0,0,0-12.75-2.07A38.57,38.57,0,0,0,52.18,26.24ZM70.49,48.7a16.83,16.83,0,0,1,5,1.46,9.14,9.14,0,0,1,3.73,3.17,9.48,9.48,0,0,1,1.4,5.37,9.43,9.43,0,0,1-1.4,5.37,9,9,0,0,1-3.79,3.18,17.56,17.56,0,0,1-5,1.46,41.89,41.89,0,0,1-11.11,0,16.89,16.89,0,0,1-4.94-1.46A8.85,8.85,0,0,1,50.66,64a9.42,9.42,0,0,1-1.41-5.31,9.4,9.4,0,0,1,1.41-5.37,9,9,0,0,1,3.72-3.17,16.89,16.89,0,0,1,4.94-1.46,39.32,39.32,0,0,1,5.56-.37A40.56,40.56,0,0,1,70.49,48.7Z" fill="none" stroke="#1d1d1b" stroke-miterlimit="10" stroke-width="1.98"/><path d="M111.92,165.45q1.29-1.89,5-1.89c.23,0,.47,0,.72,0l.85.06V167l-.85-.05h-.49q-1.71,0-2,.87a17.24,17.24,0,0,0-.34,4.47h3.72v2.92h-3.72v19.05h-3.67V175.22H108V172.3h3.07v-3.47A6.68,6.68,0,0,1,111.92,165.45Zm25.38,15.46a2,2,0,0,0,1.71-1.07,3.36,3.36,0,0,0,.25-1.43,3,3,0,0,0-1.35-2.76,7.24,7.24,0,0,0-3.86-.86c-1.93,0-3.31.53-4.12,1.58a5.24,5.24,0,0,0-.88,2.58h-3.46q.1-4.08,2.64-5.69a10.82,10.82,0,0,1,5.9-1.6,12,12,0,0,1,6.32,1.48,5,5,0,0,1,2.41,4.62v12.72a1.62,1.62,0,0,0,.24.93,1.15,1.15,0,0,0,1,.35l.56,0c.2,0,.42-.06.66-.1v2.75a10.82,10.82,0,0,1-1.32.3,8.21,8.21,0,0,1-1.24.07,3.05,3.05,0,0,1-2.78-1.36,5.05,5.05,0,0,1-.64-2,9.57,9.57,0,0,1-3.26,2.57A10.08,10.08,0,0,1,131.4,195a7,7,0,0,1-5-1.86,6.18,6.18,0,0,1-1.95-4.66,6,6,0,0,1,1.92-4.76,9.15,9.15,0,0,1,5-2.08Zm-7.82,10a4.37,4.37,0,0,0,2.79.93,8.39,8.39,0,0,0,3.79-.91,5.09,5.09,0,0,0,3.09-4.91v-3a6.4,6.4,0,0,1-1.75.73,14.67,14.67,0,0,1-2.1.41l-2.24.29a8.83,8.83,0,0,0-3,.84,3.27,3.27,0,0,0-1.72,3.09A3,3,0,0,0,129.48,190.93Zm22.7-27h3.61v11a8.35,8.35,0,0,1,2.92-2.42,8.18,8.18,0,0,1,3.68-.83,8.66,8.66,0,0,1,6.72,2.83q2.56,2.84,2.57,8.36a14.28,14.28,0,0,1-2.54,8.7,8.27,8.27,0,0,1-7.06,3.46,7.25,7.25,0,0,1-4.26-1.21,10.3,10.3,0,0,1-2.22-2.31v2.82h-3.42Zm14.19,25.41a11.7,11.7,0,0,0,1.5-6.3,10.35,10.35,0,0,0-1.5-5.78,5,5,0,0,0-4.42-2.28,6.15,6.15,0,0,0-4.45,1.87q-1.92,1.88-1.92,6.19a13.54,13.54,0,0,0,.79,5.05,5.43,5.43,0,0,0,5.48,3.65A5,5,0,0,0,166.37,189.3Zm13.25-17.11h3.53V176a8.21,8.21,0,0,1,2.12-2.71,5.5,5.5,0,0,1,3.9-1.6l.35,0,.84.08v3.92a4.88,4.88,0,0,0-.61-.08,5.62,5.62,0,0,0-.6,0,5.3,5.3,0,0,0-4.31,1.8,6.26,6.26,0,0,0-1.51,4.15v12.7h-3.71Zm17.5-8.2h3.78v4.2h-3.78Zm0,8.31h3.78v22h-3.78Zm27.52,1.07c1.56,1.21,2.49,3.29,2.81,6.25h-3.61a6.68,6.68,0,0,0-1.5-3.4,4.77,4.77,0,0,0-3.78-1.35,5.23,5.23,0,0,0-5.07,3.46,13.76,13.76,0,0,0-1,5.54,10.37,10.37,0,0,0,1.41,5.58,5.43,5.43,0,0,0,8.07.86,7.69,7.69,0,0,0,1.86-3.85h3.61q-.62,4.39-3.09,6.42a9.67,9.67,0,0,1-6.33,2,8.45,8.45,0,0,1-6.91-3.16,12.11,12.11,0,0,1-2.57-7.91q0-5.81,2.82-9.05a9.11,9.11,0,0,1,7.19-3.24A9.65,9.65,0,0,1,224.64,173.37Zm21.9,7.54a2,2,0,0,0,1.71-1.07,3.22,3.22,0,0,0,.25-1.43,3,3,0,0,0-1.35-2.76,7.22,7.22,0,0,0-3.86-.86c-1.93,0-3.3.53-4.11,1.58a5.24,5.24,0,0,0-.89,2.58h-3.46q.1-4.08,2.65-5.69a10.8,10.8,0,0,1,5.9-1.6,12,12,0,0,1,6.32,1.48,5.05,5.05,0,0,1,2.41,4.62v12.72a1.62,1.62,0,0,0,.23.93,1.15,1.15,0,0,0,1,.35l.56,0c.21,0,.43-.06.66-.1v2.75a10.82,10.82,0,0,1-1.32.3,8.12,8.12,0,0,1-1.24.07,3.06,3.06,0,0,1-2.78-1.36,5.21,5.21,0,0,1-.64-2,9.57,9.57,0,0,1-3.26,2.57,10,10,0,0,1-4.68,1.09,7,7,0,0,1-5-1.86,6.21,6.21,0,0,1-1.94-4.66,6,6,0,0,1,1.91-4.76,9.18,9.18,0,0,1,5-2.08Zm-7.81,10a4.34,4.34,0,0,0,2.78.93,8.36,8.36,0,0,0,3.79-.91,5.1,5.1,0,0,0,3.1-4.91v-3a6.68,6.68,0,0,1-1.75.73,15.23,15.23,0,0,1-2.1.41l-2.24.29a8.83,8.83,0,0,0-3,.84,3.29,3.29,0,0,0-1.72,3.09A3,3,0,0,0,238.73,190.93Zm23-18.74h3.67v3.14a12,12,0,0,1,2.4-2.37A7.17,7.17,0,0,1,272,171.7a6.55,6.55,0,0,1,4.25,1.3,6.72,6.72,0,0,1,1.64,2.18,7.67,7.67,0,0,1,6.66-3.48q4.46,0,6.06,3.21a10.49,10.49,0,0,1,.87,4.66v14.7h-3.85V178.93a3.56,3.56,0,0,0-1.11-3,4.35,4.35,0,0,0-2.69-.82,5.37,5.37,0,0,0-3.76,1.46q-1.57,1.47-1.58,4.89v12.84h-3.77V179.86a7.45,7.45,0,0,0-.54-3.28A3.26,3.26,0,0,0,271,175a5.41,5.41,0,0,0-3.82,1.63c-1.15,1.08-1.73,3.05-1.73,5.89v11.71h-3.71Zm54.72,2.21q2.93,2.83,2.92,8.36a14.49,14.49,0,0,1-2.57,8.82q-2.58,3.48-8,3.48a9,9,0,0,1-7.18-3.08,12.2,12.2,0,0,1-2.67-8.27q0-5.57,2.81-8.86a9.38,9.38,0,0,1,7.53-3.3A9.88,9.88,0,0,1,316.45,174.4Zm-2.31,14.67a13.94,13.94,0,0,0,1.36-6.21,11.16,11.16,0,0,0-1-5,5.49,5.49,0,0,0-5.34-3.05,5.26,5.26,0,0,0-4.89,2.6,12.09,12.09,0,0,0-1.53,6.25,10.52,10.52,0,0,0,1.53,5.87,5.35,5.35,0,0,0,4.85,2.35Q312.78,191.86,314.14,189.07Zm15.54-1.72a5.39,5.39,0,0,0,.95,2.84c.95,1.2,2.61,1.79,5,1.79a7.42,7.42,0,0,0,3.7-.89,3,3,0,0,0,1.6-2.78,2.37,2.37,0,0,0-1.28-2.16,15.71,15.71,0,0,0-3.23-1.05l-3-.74a14.56,14.56,0,0,1-4.23-1.57,4.66,4.66,0,0,1-2.43-4.16,6.36,6.36,0,0,1,2.28-5.08,9.23,9.23,0,0,1,6.15-1.93q5.07,0,7.3,2.92a6.37,6.37,0,0,1,1.36,4h-3.51a4.14,4.14,0,0,0-.91-2.27c-.87-1-2.38-1.46-4.53-1.46a5.54,5.54,0,0,0-3.26.8,2.5,2.5,0,0,0-1.11,2.12A2.59,2.59,0,0,0,332,180a9,9,0,0,0,2.48.9l2.5.6a19.38,19.38,0,0,1,5.46,1.88,5,5,0,0,1,2.17,4.47A6.77,6.77,0,0,1,342.3,193q-2.26,2.15-6.9,2.15c-3.32,0-5.68-.75-7.06-2.24a8.39,8.39,0,0,1-2.22-5.53ZM368.15,166h3.75v6.16h3.53v3H371.9v14.41a1.57,1.57,0,0,0,.79,1.55,3.34,3.34,0,0,0,1.44.23l.58,0c.2,0,.44,0,.72-.07v3a7.29,7.29,0,0,1-1.33.27,11.71,11.71,0,0,1-1.5.08c-1.73,0-2.9-.44-3.52-1.33a5.86,5.86,0,0,1-.93-3.45V175.22h-3v-3h3Zm18.25,6.16v14.66a6.26,6.26,0,0,0,.52,2.76,3.62,3.62,0,0,0,3.59,2,5.07,5.07,0,0,0,5.14-3.46,14,14,0,0,0,.75-5.09V172.19h3.71v22.08H396.6l0-3.25a7.58,7.58,0,0,1-1.76,2.12,7.66,7.66,0,0,1-5.05,1.73q-4.63,0-6.32-3.15a9.67,9.67,0,0,1-.91-4.52v-15Zm25.52,15.16a5.3,5.3,0,0,0,.95,2.84c.95,1.2,2.6,1.79,5,1.79a7.4,7.4,0,0,0,3.7-.89,3,3,0,0,0,1.6-2.78,2.36,2.36,0,0,0-1.27-2.16,15.71,15.71,0,0,0-3.23-1.05l-3-.74a14.8,14.8,0,0,1-4.23-1.57,4.66,4.66,0,0,1-2.43-4.16,6.34,6.34,0,0,1,2.29-5.08,9.21,9.21,0,0,1,6.15-1.93q5.05,0,7.29,2.92a6.25,6.25,0,0,1,1.36,4h-3.5a4.22,4.22,0,0,0-.91-2.27c-.87-1-2.39-1.46-4.54-1.46a5.58,5.58,0,0,0-3.26.8,2.5,2.5,0,0,0-1.11,2.12,2.6,2.6,0,0,0,1.46,2.3,9,9,0,0,0,2.48.9l2.5.6a19.64,19.64,0,0,1,5.46,1.88,5,5,0,0,1,2.16,4.47,6.76,6.76,0,0,1-2.26,5.09q-2.27,2.15-6.9,2.15c-3.32,0-5.68-.75-7.06-2.24a8.4,8.4,0,0,1-2.23-5.53ZM449.65,164h3.77v4.2h-3.77Zm0,8.31h3.77v22h-3.77Zm25.05.57a10,10,0,0,1,2.24,2.17V163.89h3.57v30.38h-3.34V191.2a8,8,0,0,1-3.06,3,8.82,8.82,0,0,1-4.05.91A8.17,8.17,0,0,1,463.7,192,12.12,12.12,0,0,1,461,183.7a14.24,14.24,0,0,1,2.45-8.36,8,8,0,0,1,7-3.54A7.81,7.81,0,0,1,474.7,172.87Zm-8.28,16.56a5.25,5.25,0,0,0,4.8,2.39,5,5,0,0,0,4.21-2.22,10.41,10.41,0,0,0,1.66-6.36q0-4.19-1.71-6.19a5.28,5.28,0,0,0-4.2-2,5.52,5.52,0,0,0-4.52,2.14q-1.74,2.15-1.74,6.31A11,11,0,0,0,466.42,189.43Zm36.82-16.63a8.44,8.44,0,0,1,3.34,2.86,9.73,9.73,0,0,1,1.47,3.89,25.53,25.53,0,0,1,.33,4.87H492.32a9.55,9.55,0,0,0,1.58,5.4,5.24,5.24,0,0,0,4.56,2,5.85,5.85,0,0,0,4.6-1.93,6.41,6.41,0,0,0,1.36-2.58h3.65a7.65,7.65,0,0,1-1,2.71,9.93,9.93,0,0,1-1.81,2.44,8.64,8.64,0,0,1-4.16,2.23,12.49,12.49,0,0,1-3,.33,9.21,9.21,0,0,1-6.94-3q-2.85-3-2.85-8.4a12.75,12.75,0,0,1,2.87-8.64,9.44,9.44,0,0,1,7.5-3.32A10,10,0,0,1,503.24,172.8Zm1.33,8.67a9.55,9.55,0,0,0-1.05-3.85,5.32,5.32,0,0,0-5-2.68,5.59,5.59,0,0,0-4.25,1.84,7,7,0,0,0-1.82,4.69Zm23.89-.56a2,2,0,0,0,1.71-1.07,3.22,3.22,0,0,0,.25-1.43,3,3,0,0,0-1.35-2.76,7.22,7.22,0,0,0-3.86-.86c-1.93,0-3.3.53-4.11,1.58a5.24,5.24,0,0,0-.89,2.58h-3.46q.11-4.08,2.65-5.69a10.8,10.8,0,0,1,5.9-1.6,12,12,0,0,1,6.32,1.48,5.05,5.05,0,0,1,2.41,4.62v12.72a1.71,1.71,0,0,0,.23.93,1.17,1.17,0,0,0,1,.35l.56,0c.21,0,.43-.06.66-.1v2.75a10.82,10.82,0,0,1-1.32.3,8,8,0,0,1-1.24.07,3.07,3.07,0,0,1-2.78-1.36,5.39,5.39,0,0,1-.64-2,9.47,9.47,0,0,1-3.26,2.57,10,10,0,0,1-4.68,1.09,7,7,0,0,1-5-1.86,6.18,6.18,0,0,1-1.95-4.66,6,6,0,0,1,1.91-4.76,9.18,9.18,0,0,1,5-2.08Zm-7.81,10a4.34,4.34,0,0,0,2.78.93,8.36,8.36,0,0,0,3.79-.91,5.08,5.08,0,0,0,3.1-4.91v-3a6.68,6.68,0,0,1-1.75.73,15.23,15.23,0,0,1-2.1.41l-2.24.29a8.83,8.83,0,0,0-3,.84,3.29,3.29,0,0,0-1.72,3.09A3,3,0,0,0,520.65,190.93Zm25.21-3.58a5.3,5.3,0,0,0,.95,2.84c1,1.2,2.61,1.79,5,1.79a7.4,7.4,0,0,0,3.7-.89,3,3,0,0,0,1.6-2.78,2.36,2.36,0,0,0-1.27-2.16,15.71,15.71,0,0,0-3.23-1.05l-3-.74a14.8,14.8,0,0,1-4.23-1.57,4.66,4.66,0,0,1-2.43-4.16,6.34,6.34,0,0,1,2.29-5.08,9.21,9.21,0,0,1,6.15-1.93q5.05,0,7.29,2.92a6.25,6.25,0,0,1,1.36,4h-3.5a4.22,4.22,0,0,0-.91-2.27q-1.3-1.46-4.54-1.46a5.58,5.58,0,0,0-3.26.8,2.5,2.5,0,0,0-1.11,2.12,2.6,2.6,0,0,0,1.46,2.3,9,9,0,0,0,2.48.9l2.5.6a19.51,19.51,0,0,1,5.46,1.88,5,5,0,0,1,2.16,4.47,6.76,6.76,0,0,1-2.26,5.09q-2.26,2.15-6.9,2.15c-3.32,0-5.68-.75-7.06-2.24a8.4,8.4,0,0,1-2.23-5.53Z" fill="#706f6f"/><path d="M404.72,75.09a23.3,23.3,0,0,1-7.36,4.06,28.73,28.73,0,0,1-8.54,1.16A21.15,21.15,0,0,1,381.38,79a17.73,17.73,0,0,1-6-3.7,17.18,17.18,0,0,1-4-5.77,18.37,18.37,0,0,1-1.44-7.33,13.12,13.12,0,0,1,3.51-9,29.73,29.73,0,0,1,8.88-6.66,19.38,19.38,0,0,1-3.19-4.8,12.59,12.59,0,0,1-1.17-5.34,12.78,12.78,0,0,1,1.36-5.88A13.88,13.88,0,0,1,383,26,17.39,17.39,0,0,1,388.35,23a18.57,18.57,0,0,1,6.08-1q8.11,0,13,3.63t4.87,10.79a13.15,13.15,0,0,1-2.92,8.23,22.43,22.43,0,0,1-7.29,6.11l4.29,5.3a9.1,9.1,0,0,0,2-4.2h12.87a27.38,27.38,0,0,1-2.3,7.24,24.49,24.49,0,0,1-4.25,6.24L426.08,79H407.84ZM390.07,56.78a16.41,16.41,0,0,0-3.82,2.65,4.5,4.5,0,0,0-1.56,3.35,4.87,4.87,0,0,0,1.64,3.7A5.26,5.26,0,0,0,390,68a6.45,6.45,0,0,0,3.27-.9,18.93,18.93,0,0,0,3.28-2.45Zm1.87-18.2a23.66,23.66,0,0,0,2.18,2.76l.47.55a9.46,9.46,0,0,0,3.12-2.42A5.08,5.08,0,0,0,399,36.12a3.68,3.68,0,0,0-1-2.65,3.56,3.56,0,0,0-2.69-1.09,4.36,4.36,0,0,0-2.84,1,3.4,3.4,0,0,0-1.29,2.77A4.39,4.39,0,0,0,391.94,38.58Z" fill="#706f6f"/><path d="M152.07,79H137.18V74.55H137c-.68.88-1.28,1.59-1.8,2.14a9.59,9.59,0,0,1-2.1,1.6,12.27,12.27,0,0,1-3.27,1.25,20.46,20.46,0,0,1-4.68.46,14.48,14.48,0,0,1-7.33-1.83,16.18,16.18,0,0,1-5.34-5,23.92,23.92,0,0,1-3.23-6.93,27.9,27.9,0,0,1-1.09-7.72A34.28,34.28,0,0,1,109,51a20.57,20.57,0,0,1,2.8-6.74,14.41,14.41,0,0,1,5.38-4.91,17.1,17.1,0,0,1,8.22-1.84A14.4,14.4,0,0,1,131.8,39a11.55,11.55,0,0,1,4.68,4h.16V23.34h15.43Zm-15.2-23.93a12,12,0,0,0-1.05-3.19,5.47,5.47,0,0,0-2.11-2.3,6.28,6.28,0,0,0-3.31-.82,6,6,0,0,0-3.31.86,5.77,5.77,0,0,0-2.1,2.26A10.53,10.53,0,0,0,123.93,55a22.3,22.3,0,0,0,0,7.41A11.09,11.09,0,0,0,125,65.62a5.75,5.75,0,0,0,2.1,2.3,6.8,6.8,0,0,0,6.62,0,5.87,5.87,0,0,0,2.11-2.26,10.88,10.88,0,0,0,1.05-3.19,21.73,21.73,0,0,0,.31-3.75A20.29,20.29,0,0,0,136.87,55.06Zm35.46-20.89H156.9V23.34h15.43ZM156.9,38.54h15.43V79H156.9Zm43.73,11.77a3.78,3.78,0,0,0-1.8-3,5.17,5.17,0,0,0-3.43-1.17,7.49,7.49,0,0,0-3.35.66,2.49,2.49,0,0,0-1.32,2.46,1.58,1.58,0,0,0,.5,1.24,5.67,5.67,0,0,0,1.29.86,36.94,36.94,0,0,0,5.38,1.25,55.48,55.48,0,0,1,8.18,1.87,16.69,16.69,0,0,1,7,4.05,9.85,9.85,0,0,1,2.62,7.25A12.75,12.75,0,0,1,214,72.56,12.36,12.36,0,0,1,209.32,77a22.48,22.48,0,0,1-6.55,2.3,39.78,39.78,0,0,1-7.6.7,33.92,33.92,0,0,1-7.29-.78,21.63,21.63,0,0,1-6.43-2.49,13.73,13.73,0,0,1-4.64-4.48A12.49,12.49,0,0,1,175,65.74h14.73a5.32,5.32,0,0,0,1.87,3.58,6.13,6.13,0,0,0,4.13,1.17,8.32,8.32,0,0,0,3.55-.78,2.48,2.48,0,0,0,1.68-2.33,2.67,2.67,0,0,0-1.56-2.58,31.61,31.61,0,0,0-6.94-1.71q-8.81-1.48-12.66-4.48a9.83,9.83,0,0,1-3.86-8.23,10.6,10.6,0,0,1,1.75-6.19,12.37,12.37,0,0,1,4.56-4,22.12,22.12,0,0,1,6.16-2.06,35.73,35.73,0,0,1,6.62-.63,40.06,40.06,0,0,1,7,.59,21.76,21.76,0,0,1,6.16,2,12.22,12.22,0,0,1,4.6,4,11.66,11.66,0,0,1,1.91,6.2ZM231.1,62.23A9.24,9.24,0,0,0,233.44,68,7.23,7.23,0,0,0,239,70.1a9.78,9.78,0,0,0,3.82-.74,5.31,5.31,0,0,0,2.65-2.14h14.42A17.39,17.39,0,0,1,252,76.77,25.58,25.58,0,0,1,239.05,80a27.92,27.92,0,0,1-9-1.4,20.81,20.81,0,0,1-7.25-4.13,18.32,18.32,0,0,1-4.75-6.67,23.87,23.87,0,0,1-.16-17.18,20.68,20.68,0,0,1,4.36-6.86,19.85,19.85,0,0,1,6.82-4.6,22.55,22.55,0,0,1,8.65-1.64q11.78,0,17.39,6.32t5.61,18.39Zm14.81-8A6.64,6.64,0,0,0,244,49.37a6.52,6.52,0,0,0-4.87-1.95c-4.58,0-7.22,2.26-7.95,6.78Zm17.38-15.66h14.89v5.14h.15q4.37-6.15,13.17-6.16a14.37,14.37,0,0,1,9.86,3.55q4,3.56,4,10.17V79H289.94V57.79a14,14,0,0,0-1-6q-1-1.95-4.09-1.95a6.8,6.8,0,0,0-2.14.35,5.58,5.58,0,0,0-2,1.17,5.37,5.37,0,0,0-1.48,2.38,11.71,11.71,0,0,0-.55,3.89V79H263.29Zm6.23-7.76A12.32,12.32,0,0,1,271,27.24a7.67,7.67,0,0,1,6.78-3.67,15.64,15.64,0,0,1,3.58.43A30.55,30.55,0,0,1,285,25.13l1.64.63a11.81,11.81,0,0,0,3,.93,3.36,3.36,0,0,0,2.22-.74,4.45,4.45,0,0,0,1.29-2.61h6.39A13,13,0,0,1,297,31.09a7.77,7.77,0,0,1-6.51,3.08,19.36,19.36,0,0,1-6.94-1.48l-.7-.23a15,15,0,0,0-4.44-1.17,2.67,2.67,0,0,0-2.07,1.05,5,5,0,0,0-1.13,2.3h-6.15A16.3,16.3,0,0,1,269.52,30.78ZM351,66.87a18.92,18.92,0,0,1-4.09,6.82,19.12,19.12,0,0,1-6.94,4.64,29,29,0,0,1-19.4,0,18.83,18.83,0,0,1-6.94-4.68,19.26,19.26,0,0,1-4.09-6.82,25.36,25.36,0,0,1,0-16.21,18.69,18.69,0,0,1,11-11.42,28.84,28.84,0,0,1,19.4,0,18.69,18.69,0,0,1,11,11.42,24.36,24.36,0,0,1,1.33,8.1A24.74,24.74,0,0,1,351,66.87ZM336.63,55.18A10.89,10.89,0,0,0,335.7,52a5.94,5.94,0,0,0-2-2.38,7,7,0,0,0-6.82,0A5.81,5.81,0,0,0,324.78,52a11.21,11.21,0,0,0-.93,3.16,27.43,27.43,0,0,0,0,7.09,11.77,11.77,0,0,0,.93,3.2,5.77,5.77,0,0,0,2,2.41,7,7,0,0,0,6.86,0,5.85,5.85,0,0,0,2-2.37,11,11,0,0,0,.93-3.2,25.86,25.86,0,0,0,.24-3.59A25,25,0,0,0,336.63,55.18Z" fill="#ba231a"/><path d="M149.42,136.46a33.82,33.82,0,0,0,.35,5.07,9.63,9.63,0,0,0,1.52,4H135.55a11.07,11.07,0,0,1-.55-3.82h-.15a12.65,12.65,0,0,1-5.62,3.74,23.26,23.26,0,0,1-7.4,1.09,16.32,16.32,0,0,1-10.25-3.08q-4-3.08-4-9.15a10.89,10.89,0,0,1,1.67-6.28,11.53,11.53,0,0,1,4.37-3.82,22.58,22.58,0,0,1,5.61-2c2-.42,4.27-.78,7-1.1,1.93-.26,3.33-.46,4.21-.62a8.84,8.84,0,0,0,3.08-1.13,2.71,2.71,0,0,0,1.13-2.45,3.09,3.09,0,0,0-1.48-2.81,6.61,6.61,0,0,0-3.58-.94c-2.14,0-3.62.41-4.45,1.21a4.21,4.21,0,0,0-1.32,2.93H109.44a12.6,12.6,0,0,1,2-6.75,11.84,11.84,0,0,1,4.8-4.09,22.74,22.74,0,0,1,6.47-1.91,52.72,52.72,0,0,1,7.56-.5,36.37,36.37,0,0,1,10.83,1.28,12,12,0,0,1,5.73,3.43,9.86,9.86,0,0,1,2.18,4.64,39.05,39.05,0,0,1,.43,6.47Zm-14.81-9.12a26.68,26.68,0,0,1-6.08,1.95,10.82,10.82,0,0,0-4,1.52,3.49,3.49,0,0,0,.19,5.45,5.27,5.27,0,0,0,3.43,1.13,6.12,6.12,0,0,0,6.47-6.31Zm75.6-22.29v4.44h-.15a23.59,23.59,0,0,0-1.76-2.1,9.83,9.83,0,0,0-2.14-1.64,11.81,11.81,0,0,0-3.27-1.25,20.46,20.46,0,0,0-4.68-.46,14.5,14.5,0,0,0-7.33,1.83,16.05,16.05,0,0,0-5.33,4.95c-.35.5-.67,1-1,1.55v-7.71a17.3,17.3,0,0,0-4.52-.62,11.71,11.71,0,0,0-6.74,1.83,14.72,14.72,0,0,0-4.64,5.65h-.15v-6.47H153.71V145.5h15.43v-16q0-6.32,2.34-9.27c1.56-2,3.9-3,7-3a18.59,18.59,0,0,1,3.35.23l.51.12s0,.07,0,.11a27.9,27.9,0,0,0-1.09,7.72,33.13,33.13,0,0,0,.86,7.56,21.19,21.19,0,0,0,2.8,6.7,14.47,14.47,0,0,0,5.34,4.91,16.77,16.77,0,0,0,8.23,1.87,14.45,14.45,0,0,0,6.39-1.44,11.59,11.59,0,0,0,4.67-4h.16v17.53H225.1V105.05Zm-.31,24a10.92,10.92,0,0,1-1.05,3.15,5.85,5.85,0,0,1-2.1,2.26,6.82,6.82,0,0,1-6.63,0,5.75,5.75,0,0,1-2.1-2.3A11.14,11.14,0,0,1,197,129a21.36,21.36,0,0,1-.31-3.67,22.42,22.42,0,0,1,.31-3.78,10.53,10.53,0,0,1,1.06-3.15,5.77,5.77,0,0,1,2.1-2.26,6,6,0,0,1,3.31-.86q3.75,0,5.26,2.73a15,15,0,0,1,1.52,7.32A21,21,0,0,1,209.9,129Zm61.81,16.48H256.82v-5.14h-.15q-4.37,6.15-13.18,6.15a14.4,14.4,0,0,1-9.86-3.54q-4-3.56-4-10.17V105.05h15.43v21.2a14,14,0,0,0,1,6q1,2,4.09,1.95a7.2,7.2,0,0,0,2.18-.35,5.24,5.24,0,0,0,2-1.21,6,6,0,0,0,1.44-2.42,11.73,11.73,0,0,0,.55-3.82V105.05h15.43ZM292,100.68H276.54V89.85H292Zm-15.43,4.37H292V145.5H276.54Zm38.89,0h8.26v9.51h-8.26v14.1a6.75,6.75,0,0,0,1,4.17c.65.81,1.91,1.21,3.78,1.21a26.84,26.84,0,0,0,3.5-.23V145.5c-1.09,0-2.7.08-4.83.23-2.34.16-4,.24-5.06.24a31.63,31.63,0,0,1-5.26-.39,11.58,11.58,0,0,1-4.25-1.6,8.47,8.47,0,0,1-3.12-3.66,15.05,15.05,0,0,1-1.17-6.43V114.56h-6.86v-9.51H300V92.73h15.43Zm22.29,23.69a9.24,9.24,0,0,0,2.34,5.73,7.25,7.25,0,0,0,5.54,2.14,9.81,9.81,0,0,0,3.82-.74,5.4,5.4,0,0,0,2.65-2.14h14.41a17.35,17.35,0,0,1-7.91,9.55,25.42,25.42,0,0,1-12.9,3.23,27.92,27.92,0,0,1-9-1.4,20.91,20.91,0,0,1-7.25-4.13,18.49,18.49,0,0,1-4.75-6.66,23.9,23.9,0,0,1-.16-17.19,20.71,20.71,0,0,1,4.37-6.86,19.75,19.75,0,0,1,6.82-4.6,22.51,22.51,0,0,1,8.65-1.63q11.76,0,17.38,6.31t5.61,18.39Zm14.81-8a6.6,6.6,0,0,0-1.91-4.83,6.51,6.51,0,0,0-4.87-1.95q-6.86,0-7.95,6.78ZM396,120.4a5.38,5.38,0,0,0-1.71-3.82,5.48,5.48,0,0,0-3.9-1.32,6.63,6.63,0,0,0-3.47.82,5.24,5.24,0,0,0-2.06,2.26,11.36,11.36,0,0,0-1,3.15,24.78,24.78,0,0,0-.27,3.82,29.37,29.37,0,0,0,.23,3.82,9.27,9.27,0,0,0,1,3.12,5.48,5.48,0,0,0,2.1,2.22,6.63,6.63,0,0,0,3.47.82,5.5,5.5,0,0,0,4.09-1.71,6.72,6.72,0,0,0,1.91-4.21h14.73A18.5,18.5,0,0,1,404.29,142a22.19,22.19,0,0,1-14.19,4.56,23.48,23.48,0,0,1-8.5-1.52,21.57,21.57,0,0,1-7-4.32,19.42,19.42,0,0,1-4.72-6.74,21.93,21.93,0,0,1-1.67-8.62,22.19,22.19,0,0,1,1.67-8.65,19.6,19.6,0,0,1,4.68-6.78,21.19,21.19,0,0,1,7-4.33A23.93,23.93,0,0,1,390.1,104a23.47,23.47,0,0,1,14.15,4.16q5.73,4.18,6.43,12.2Zm36.17-15.35h8.26v9.51h-8.26v14.1c0,2,.32,3.37,1,4.17s1.91,1.21,3.78,1.21a27,27,0,0,0,3.51-.23V145.5c-1.09,0-2.7.08-4.83.23q-3.51.24-5.07.24a31.63,31.63,0,0,1-5.26-.39A11.65,11.65,0,0,1,421,144a8.47,8.47,0,0,1-3.12-3.66,15.05,15.05,0,0,1-1.17-6.43V114.56H409.9v-9.51h6.85V92.73h15.44Zm51.36,40.45H468.66v-5.14h-.15q-4.36,6.15-13.17,6.15a14.36,14.36,0,0,1-9.86-3.54q-4-3.56-4-10.17V105.05h15.43v21.2a14,14,0,0,0,1,6q1,2,4.09,1.95a7.2,7.2,0,0,0,2.18-.35,5.24,5.24,0,0,0,2-1.21,6,6,0,0,0,1.44-2.42,11.73,11.73,0,0,0,.55-3.82V105.05h15.43Zm75-4a32.55,32.55,0,0,1-.35-5.07v-16.6a40.18,40.18,0,0,0-.43-6.47,10.06,10.06,0,0,0-2.18-4.64,12,12,0,0,0-5.73-3.43A36.44,36.44,0,0,0,539,104a52.72,52.72,0,0,0-7.56.5,22.83,22.83,0,0,0-6.47,1.91,11.88,11.88,0,0,0-4.79,4.09,10.79,10.79,0,0,0-1.29,2.69v-8.57a17.25,17.25,0,0,0-4.52-.62,11.71,11.71,0,0,0-6.74,1.83,14.62,14.62,0,0,0-4.63,5.65h-.16v-6.47H488.07V145.5H503.5v-16q0-6.32,2.34-9.27c1.56-2,3.9-3,7-3a18.66,18.66,0,0,1,3.35.23,16.61,16.61,0,0,1,2.72.78v-1h13.64a4.26,4.26,0,0,1,1.33-2.93c.83-.8,2.31-1.21,4.44-1.21a6.64,6.64,0,0,1,3.59.94,3.11,3.11,0,0,1,1.48,2.81,2.71,2.71,0,0,1-1.13,2.45,8.92,8.92,0,0,1-3.08,1.13c-.89.16-2.29.36-4.21.62-2.7.32-5,.68-7,1.1a22.87,22.87,0,0,0-5.61,2A11.5,11.5,0,0,0,518,128a10.89,10.89,0,0,0-1.68,6.28q0,6.08,4,9.15a16.3,16.3,0,0,0,10.25,3.08,23.26,23.26,0,0,0,7.4-1.09,12.67,12.67,0,0,0,5.61-3.74h.16a11.34,11.34,0,0,0,.54,3.82h15.75A9.49,9.49,0,0,1,558.57,141.53Zm-15.16-10.45a6.54,6.54,0,0,1-1.95,4.68,6.45,6.45,0,0,1-4.52,1.63,5.25,5.25,0,0,1-3.43-1.13,3.27,3.27,0,0,1-1.4-2.61,3.31,3.31,0,0,1,1.2-2.84,11,11,0,0,1,4-1.52,26.85,26.85,0,0,0,6.08-1.95Z" fill="#73bdd5"/><rect x="0.5" y="0.5" width="595.28" height="225.77" fill="none" stroke="#1d1d1b" stroke-miterlimit="10"/></g></g></svg>