<svg xmlns="http://www.w3.org/2000/svg" viewBox="0 0 170.95 68.5"><g id="bffa3f7a-4f8c-4a3b-911e-f9c876c671b2" data-name="Capa 2"><g id="edb79dc7-e210-44b6-9903-40502fa0c419" data-name="Capa 1"><path d="M135.42,68.5a42,42,0,0,1-15.57-2.69,30.55,30.55,0,0,1-11.22-7.58c-.67-.73-1.32-1.5-1.93-2.3v11H80.55V31.63c0-3.57-.45-6.27-1.35-8-.8-1.57-2.63-2.33-5.59-2.33-2.51,0-4.28.83-5.39,2.54s-1.79,4.45-1.79,7.82V66.91H40.28V31.63c0-3.57-.46-6.27-1.36-8-.79-1.54-2.67-2.32-5.58-2.32-2.52,0-4.28.83-5.4,2.54s-1.79,4.45-1.79,7.82V66.91H0V1.59H25.3V8.35a21.34,21.34,0,0,1,7.56-5.88A29.67,29.67,0,0,1,45.3,0,22.09,22.09,0,0,1,56,2.74a16.59,16.59,0,0,1,6.63,6.35c.81-.93,1.58-1.77,2.33-2.51a19,19,0,0,1,4-2.9,27.72,27.72,0,0,1,6.39-2.61A32.32,32.32,0,0,1,84,0,26.22,26.22,0,0,1,94.45,1.91a19.08,19.08,0,0,1,7.14,5.16,20.26,20.26,0,0,1,3.89,7.17,30.15,30.15,0,0,1,3.16-4,30.83,30.83,0,0,1,11.21-7.5A41.75,41.75,0,0,1,135.42,0,42,42,0,0,1,151,2.69,31.07,31.07,0,0,1,162.2,10.2a30.7,30.7,0,0,1,6.62,11h0a39.5,39.5,0,0,1,2.13,13,40,40,0,0,1-2.13,13.08,30.6,30.6,0,0,1-6.62,11A31,31,0,0,1,151,65.81,42,42,0,0,1,135.42,68.5Zm-30.7-19.31,1.84,3a29.52,29.52,0,0,0,3.53,4.69A28.46,28.46,0,0,0,120.6,64a39.61,39.61,0,0,0,14.82,2.56A39.7,39.7,0,0,0,150.25,64,28.17,28.17,0,0,0,167,46.62a38.24,38.24,0,0,0,2-12.43,37.71,37.71,0,0,0-2-12.37h0a28.27,28.27,0,0,0-16.7-17.28A39.7,39.7,0,0,0,135.42,2,39.61,39.61,0,0,0,120.6,4.54a29,29,0,0,0-10.51,7,28.55,28.55,0,0,0-4.12,5.7l-1.29,2.32L104.13,17c-.16-.77-.33-1.45-.53-2.09a18.43,18.43,0,0,0-3.53-6.55,17.21,17.21,0,0,0-6.41-4.61A24.28,24.28,0,0,0,84,2a30.37,30.37,0,0,0-8.16,1A25.88,25.88,0,0,0,69.9,5.39,18.4,18.4,0,0,0,66.32,8c-.82.82-1.68,1.76-2.57,2.81-.35.43-.57.7-.66.79l-1,1-.59-1.32A14.35,14.35,0,0,0,55,4.49,20.13,20.13,0,0,0,45.3,2,27.71,27.71,0,0,0,33.69,4.27a20.25,20.25,0,0,0-8.32,7.28l-.29.44H23.31V3.57H2V64.93H24.17V31.63c0-3.76.71-6.76,2.11-8.91s3.86-3.44,7.06-3.44c3.72,0,6.19,1.15,7.35,3.41,1.06,2.08,1.57,5,1.57,8.94v33.3H64.44V31.63c0-3.76.71-6.76,2.12-8.91s3.86-3.44,7-3.44c3.72,0,6.2,1.15,7.35,3.41,1.06,2.08,1.58,5,1.58,8.94v33.3h22.18Zm30.7,1.74a10.39,10.39,0,0,1-5.93-1.58A10.08,10.08,0,0,1,126,45.16a18.79,18.79,0,0,1-1.55-5.28,42.79,42.79,0,0,1,0-11.38A18.18,18.18,0,0,1,126,23.27a10,10,0,0,1,3.59-4.13,11.87,11.87,0,0,1,11.78,0,10.12,10.12,0,0,1,3.51,4.12,18.18,18.18,0,0,1,1.55,5.23,41.39,41.39,0,0,1,.38,5.69,42.72,42.72,0,0,1-.38,5.75h0a18.2,18.2,0,0,1-1.55,5.29,10.12,10.12,0,0,1-3.51,4.12A10.39,10.39,0,0,1,135.42,50.93Zm0-31.37a8.55,8.55,0,0,0-4.76,1.24,8,8,0,0,0-2.89,3.32,15.83,15.83,0,0,0-1.37,4.65,40.91,40.91,0,0,0,0,10.83,16.41,16.41,0,0,0,1.38,4.73,8.07,8.07,0,0,0,2.82,3.38,10,10,0,0,0,9.63,0,8.15,8.15,0,0,0,2.84-3.33,15.86,15.86,0,0,0,1.37-4.71h0a40.25,40.25,0,0,0,.36-5.48,40.8,40.8,0,0,0-.35-5.42,16.24,16.24,0,0,0-1.38-4.65,8.21,8.21,0,0,0-2.84-3.33A8.47,8.47,0,0,0,135.42,19.56Z" fill="#1d1d1b"/></g></g></svg>